<?xml version="1.0" encoding="utf-8"?>
<!-- Generator: Adobe Illustrator 27.5.0, SVG Export Plug-In . SVG Version: 6.00 Build 0)  -->
<svg version="1.1" id="Camada_1" xmlns="http://www.w3.org/2000/svg" xmlns:xlink="http://www.w3.org/1999/xlink" x="0px" y="0px"
	 viewBox="0 0 130 129" style="enable-background:new 0 0 130 129;" xml:space="preserve">
<style type="text/css">
	.st0{fill:#FFFFFF;}
	.st1{fill:#E63960;}
</style>
<path class="st0" d="M122.2,7.6c-37.5,0-75.1,0-112.6,0c-1.1,0-1.1,0-1.1,1.1c0,37.7,0,75.5,0,113.2c-0.5,0.1-0.6-0.1-0.6-0.6
	c0-37.9,0-75.8,0-113.7C7.8,7.1,7.9,7,8.4,7c37.7,0,75.4,0,113.1,0C122.1,7,122.3,7.1,122.2,7.6z"/>
<path class="st1" d="M30.5,70.8c3.1-0.1,6,2.6,5.9,6.1c-0.1,3.4-2.5,5.3-5.1,5.8c-1.7,0.3-3.2-0.2-4.4-1.2c-1.6-1.3-2.3-3.1-2.3-5.2
	C24.6,73.6,27.5,70.6,30.5,70.8z"/>
<path class="st1" d="M79.1,103c0.2,3.3-2.8,5.8-5.8,5.9c-3.1,0-6.1-2.7-6-6.1c0.1-3,2.7-6,5.2-5.9C76.7,97,79.2,99.3,79.1,103z"/>
<path class="st1" d="M50.7,34.3c0-2.7,2.7-5.9,5.2-5.8c4,0.1,6.6,1.9,6.6,6c0,3.2-2.5,5.9-6.2,5.9C53.5,40.5,50.5,37.3,50.7,34.3z"
	/>
<path class="st1" d="M105.3,60.7c0.2,3.2-2.7,6-6,6c-2.7,0-5.8-2.4-5.8-6.1c0-3.2,2.8-5.8,5.3-5.8C102.3,54.8,105.2,56.6,105.3,60.7
	z"/>
<path class="st1" d="M71,32.8c2.5-0.1,5,2.3,5.1,4.9c0.1,2-2.4,4.7-4.4,4.9c-1.4,0.1-2.5-0.1-3.6-1c-1-0.9-1.8-2-1.9-3.5
	C65.8,34.7,68.7,32.9,71,32.8z"/>
<path class="st1" d="M96.3,41.8c2.5-0.2,5,2.5,4.9,4.9c-0.2,2.4-2.3,4.7-4.5,4.9c-3.4,0.3-5.2-2.7-5.2-5
	C91.5,44.3,93.3,41.7,96.3,41.8z"/>
<path class="st1" d="M42.5,32.9c2.8,0.1,5,2,4.9,5c-0.1,2.9-2.4,4.9-5.3,4.8c-2.4-0.1-4.3-2.2-4.4-5.1C37.6,35,40.1,32.8,42.5,32.9z
	"/>
<path class="st1" d="M33.3,95.8c-2.6-0.3-4.4-2.2-4.6-5.1C28.5,88.6,31,85.9,33,86c3,0.1,5.4,1.9,5.4,4.8
	C38.3,93.7,36.2,95.6,33.3,95.8z"/>
<path class="st1" d="M92.2,99.9c0,2.5-2.4,4.9-5,4.9c-2.3,0-4.7-2.5-4.8-4.9c0-3,2.3-4.8,4.8-4.9C89.6,95,92.2,96.9,92.2,99.9z"/>
<path class="st1" d="M58.9,95c2.4,0,4.9,2,4.8,4.7c-0.1,2.8-2.1,5-4.8,5c-2.8,0-4.7-2.1-4.9-5C53.9,97,56.5,95,58.9,95z"/>
<path class="st1" d="M96.2,70.4c2.7-0.2,5.1,2.6,4.9,4.8c-0.2,2.6-2,4.5-4.1,4.8c-1.5,0.2-2.9-0.2-4.1-1.4c-1-1-1.5-2.2-1.5-3.5
	C91.6,72.5,93.4,70.5,96.2,70.4z"/>
<path class="st1" d="M33.5,67.2c-2.6,0.2-4.8-2.7-4.8-5c0-2.5,2.7-4.8,5.1-4.6c2.7,0.2,4.6,1.9,4.7,5.1c0,1-0.5,2-1.3,2.8
	C36.2,66.6,35,67.3,33.5,67.2z"/>
<path class="st1" d="M100.9,92.4c0.1,2.1-1.6,3.3-3.4,3.4c-1.7,0.1-3.2-1.7-3.3-3.5c-0.1-2.1,1.9-3.5,3.4-3.4
	C99.1,88.9,101,89.8,100.9,92.4z"/>
<path class="st1" d="M52.1,92.4c0,1.8-1.5,3.4-3.6,3.4c-1.6,0-3.3-1.9-3.1-3.6c0.2-1.8,1-3.3,3.7-3.2C50.7,89,52.1,90.5,52.1,92.4z"
	/>
<path class="st1" d="M41.1,97.8c2-0.1,3.4,1.4,3.4,3.4c0,1.9-1.4,3.3-3.4,3.4c-1.9,0.1-3.4-2-3.3-3.5C37.9,99.2,39.1,97.7,41.1,97.8
	z"/>
<path class="st1" d="M88.6,82c2,0,3.5,1.4,3.5,3.3c0,1.7-1.6,3.4-3.2,3.4c-2,0-3.6-1.5-3.6-3.4C85.4,83.5,86.9,81.7,88.6,82z"/>
<path class="st1" d="M29,45.3c0-1.9,1.4-3.4,3.3-3.5c1.8,0,3.4,1.6,3.4,3.4c0,2-1.6,3.4-3.4,3.4C30.6,48.6,29,47.7,29,45.3z"/>
<path class="st1" d="M85.4,36.4c0.2-1.8,1.1-3.3,3.6-3.3c1.7,0.1,3.1,1.5,3.1,3.1c0,2.2-1.5,3.5-3.5,3.6
	C86.7,39.9,85.4,37.9,85.4,36.4z"/>
<path class="st1" d="M44.5,52.2c0.2,2.1-1.9,3.5-3.4,3.4c-1.8,0-3.2-1.6-3.2-3.4c0-1.9,1.3-3.3,2.8-3.4C43,48.8,44.6,50.5,44.5,52.2
	z"/>
<path class="st1" d="M84.5,45.3c0.1,2-1.5,3.2-3.4,3.3c-1.5,0.1-3.3-1.8-3.3-3.4c0-1.7,1.6-3.5,3.2-3.4C82.8,42,84.6,43.2,84.5,45.3
	z"/>
<path class="st1" d="M82.2,90.7c0,1.1-0.9,2-2.1,2.1c-1,0-1.8-0.9-1.8-2c0-0.9,1-2.1,1.8-2.1C81.2,88.7,82.2,89.6,82.2,90.7z"/>
<path class="st1" d="M51.6,107.1c0,1.1-0.9,2-2,2c-1.1,0-2-0.9-2-2c0-1.2,0.8-2,2-2C50.8,105.1,51.6,105.9,51.6,107.1z"/>
<path class="st1" d="M49.6,44.9c1.1,0,2,0.8,2,1.8c0,1-1,2.1-2,2.1c-0.9,0-2-1.2-2-2.1C47.7,45.6,48.4,44.9,49.6,44.9z"/>
<path class="st1" d="M101.5,83.8c-0.1-1.1,0.9-2,2.1-1.8c1,0.1,1.7,0.8,1.7,2c0,1-1,1.8-1.9,1.8C102.2,85.7,101.5,85,101.5,83.8z"/>
<path class="st1" d="M43.2,82c1-0.2,2,1,2,1.9c0,0.9-1.1,1.9-2.1,1.9c-1,0-1.9-1-1.9-2C41.3,82.7,42.1,82,43.2,82z"/>
<path class="st1" d="M78.3,30.4c0-0.9,0.9-1.9,1.7-1.9c1.1,0,2.2,1,2.2,2c0,0.9-1.1,2.2-1.9,2.1C79.4,32.5,78.2,31.3,78.3,30.4z"/>
<path class="st1" d="M26.4,51.9c1.1,0.1,2.1,0.8,2.1,1.9c0,1-1,1.9-2.1,1.9c-0.9,0-1.8-1-1.8-1.9C24.6,52.7,25.5,51.9,26.4,51.9z"/>
<path class="st1" d="M86.4,55.7c-0.8,0-1.8-1.1-1.8-2c0-0.8,1.1-1.8,1.9-1.8c1.2,0,2,1,2.1,2C88.8,54.6,87.4,55.7,86.4,55.7z"/>
<path class="st1" d="M105.5,78.6c-0.6,0-1.4-0.9-1.4-1.5c0-0.4,1-1.3,1.4-1.2c0.6,0,1.5,1,1.4,1.5C106.9,77.8,105.9,78.7,105.5,78.6
	z"/>
<path class="st1" d="M73.8,27.2c0.8,0,1.4,0.6,1.4,1.4c0,0.6-0.8,1.2-1.4,1.2c-0.6,0-1.3-0.7-1.3-1.3C72.4,27.7,73,27.2,73.8,27.2z"
	/>
<path class="st1" d="M73.7,91.6c0.8,0,1.4,0.7,1.4,1.4c0,0.5-0.8,1.2-1.4,1.2c-0.7,0-1.4-0.8-1.4-1.4C72.5,92,73,91.5,73.7,91.6z"/>
<path class="st1" d="M56.1,46.1c-0.6,0-1.3-0.8-1.3-1.4c0-0.7,0.6-1.2,1.3-1.1c0.7,0,1.4,0.7,1.4,1.3C57.5,45.4,56.7,46.1,56.1,46.1
	z"/>
<path class="st1" d="M24.4,61.5c-0.8,0-1.4-0.5-1.4-1.2c0-0.6,0.7-1.2,1.4-1.2c0.8,0,1.4,0.6,1.3,1.3C25.8,61,25.2,61.4,24.4,61.5z"
	/>
<path class="st1" d="M56,107.8c0.7,0,1.4,0.6,1.4,1.3c0,0.6-0.7,1.3-1.3,1.3c-0.5,0-1.5-0.9-1.5-1.4C54.7,108.5,55.4,107.8,56,107.8
	z"/>
<path class="st1" d="M42.5,77.2c0,0.7-0.6,1.4-1.2,1.4c-0.6,0-1.4-0.8-1.4-1.4c0-0.7,0.6-1.3,1.3-1.3C41.8,75.9,42.5,76.6,42.5,77.2
	z"/>
<path class="st1" d="M88.6,59c0.7,0,1.3,0.6,1.3,1.3c0,0.6-0.7,1.3-1.3,1.3c-0.5,0-1.3-0.8-1.3-1.3C87.4,59.5,87.8,59,88.6,59z"/>
</svg>
